<?xml version="1.0" encoding="UTF-8"?>
<svg xmlns="http://www.w3.org/2000/svg" xmlns:xlink="http://www.w3.org/1999/xlink" width="100px" height="62px" viewBox="0 0 99 62" version="1.1">
<defs>
<clipPath id="clip1">
  <path d="M 18.921875 26.535156 L 79.957031 26.535156 L 79.957031 35.519531 L 18.921875 35.519531 Z M 18.921875 26.535156 "/>
</clipPath>
</defs>
<g id="surface1">
<g clip-path="url(#clip1)" clip-rule="nonzero">
<path style=" stroke:none;fill-rule:nonzero;fill:rgb(20%,41.568627%,52.54902%);fill-opacity:1;" d="M 22.832031 35.417969 L 21.464844 32.304688 C 21.34375 32.3125 21.21875 32.316406 21.085938 32.316406 C 20.953125 32.316406 20.753906 32.304688 20.492188 32.285156 L 20.492188 35.367188 L 18.925781 35.367188 L 18.925781 27.441406 C 19.476562 27.371094 20.15625 27.335938 20.957031 27.335938 C 22.046875 27.335938 22.863281 27.539062 23.402344 27.941406 C 23.9375 28.347656 24.207031 28.972656 24.207031 29.820312 C 24.207031 30.476562 23.960938 31.035156 23.46875 31.503906 C 23.308594 31.652344 23.121094 31.78125 22.914062 31.894531 L 24.117188 34.441406 C 24.351562 34.96875 24.535156 35.28125 24.660156 35.378906 L 24.632812 35.410156 C 24.25 35.347656 23.648438 35.347656 22.832031 35.417969 Z M 21.066406 28.734375 C 20.867188 28.734375 20.675781 28.742188 20.492188 28.761719 L 20.492188 31.027344 C 20.683594 31.054688 20.910156 31.070312 21.167969 31.070312 C 21.429688 31.070312 21.648438 31.046875 21.824219 31.003906 C 22 30.957031 22.15625 30.886719 22.28125 30.789062 C 22.5625 30.582031 22.699219 30.269531 22.699219 29.847656 C 22.699219 29.429688 22.554688 29.132812 22.265625 28.964844 C 21.992188 28.8125 21.59375 28.734375 21.066406 28.734375 Z M 25.519531 32.320312 C 25.519531 31.859375 25.597656 31.429688 25.757812 31.035156 C 25.914062 30.636719 26.136719 30.292969 26.421875 29.996094 C 27.039062 29.367188 27.839844 29.054688 28.828125 29.054688 C 29.667969 29.054688 30.339844 29.332031 30.847656 29.890625 C 31.347656 30.425781 31.597656 31.101562 31.597656 31.917969 C 31.597656 32.230469 31.574219 32.445312 31.527344 32.558594 C 31.132812 32.667969 30.332031 32.722656 29.125 32.722656 L 27.046875 32.722656 C 27.148438 33.144531 27.386719 33.476562 27.761719 33.710938 C 28.136719 33.945312 28.621094 34.0625 29.21875 34.0625 C 29.84375 34.0625 30.378906 33.953125 30.828125 33.726562 C 30.945312 33.667969 31.035156 33.609375 31.09375 33.558594 C 31.085938 33.726562 31.074219 33.894531 31.066406 34.070312 L 31 34.996094 C 30.703125 35.199219 30.21875 35.34375 29.550781 35.421875 C 29.351562 35.445312 29.164062 35.457031 28.980469 35.457031 C 27.984375 35.457031 27.15625 35.164062 26.507812 34.578125 C 25.847656 33.992188 25.519531 33.238281 25.519531 32.320312 Z M 30.027344 31.574219 C 29.863281 30.722656 29.40625 30.300781 28.644531 30.300781 C 28.046875 30.300781 27.59375 30.558594 27.285156 31.074219 C 27.191406 31.234375 27.117188 31.40625 27.066406 31.597656 C 27.160156 31.601562 27.277344 31.605469 27.414062 31.609375 L 27.851562 31.609375 C 27.996094 31.613281 28.136719 31.617188 28.269531 31.617188 L 28.605469 31.617188 C 28.804688 31.617188 29.003906 31.613281 29.195312 31.609375 L 29.679688 31.59375 C 29.808594 31.585938 29.925781 31.582031 30.027344 31.574219 Z M 36.945312 35 C 36.386719 35.304688 35.878906 35.457031 35.425781 35.457031 C 34.976562 35.457031 34.589844 35.414062 34.269531 35.328125 C 33.945312 35.246094 33.671875 35.121094 33.445312 34.953125 C 32.992188 34.617188 32.761719 34.132812 32.761719 33.496094 C 32.761719 32.925781 33.042969 32.453125 33.601562 32.074219 C 34.207031 31.660156 35.027344 31.457031 36.066406 31.457031 L 36.300781 31.460938 C 36.347656 31.464844 36.402344 31.46875 36.460938 31.472656 C 36.519531 31.472656 36.574219 31.476562 36.621094 31.484375 C 36.589844 30.851562 36.316406 30.480469 35.804688 30.375 C 35.636719 30.339844 35.457031 30.320312 35.265625 30.320312 C 35.074219 30.320312 34.886719 30.339844 34.703125 30.375 C 34.523438 30.40625 34.34375 30.453125 34.171875 30.507812 C 33.792969 30.628906 33.519531 30.769531 33.351562 30.925781 L 33.335938 30.917969 L 33.160156 29.605469 C 33.855469 29.238281 34.613281 29.054688 35.4375 29.054688 C 36.722656 29.054688 37.542969 29.519531 37.898438 30.449219 C 38.011719 30.746094 38.070312 31.078125 38.070312 31.449219 L 38.070312 33.59375 C 38.070312 34.054688 38.230469 34.367188 38.554688 34.53125 L 37.488281 35.515625 C 37.261719 35.398438 37.082031 35.226562 36.945312 35 Z M 36.625 33.792969 L 36.625 32.550781 C 36.519531 32.53125 36.410156 32.523438 36.292969 32.523438 L 36.058594 32.523438 C 35.191406 32.523438 34.636719 32.714844 34.402344 33.101562 C 34.332031 33.21875 34.296875 33.339844 34.296875 33.464844 C 34.296875 33.589844 34.320312 33.703125 34.363281 33.800781 C 34.410156 33.898438 34.484375 33.976562 34.589844 34.039062 C 34.796875 34.15625 35.097656 34.21875 35.503906 34.21875 C 35.90625 34.21875 36.28125 34.121094 36.632812 33.929688 C 36.628906 33.882812 36.625 33.839844 36.625 33.792969 Z M 41.277344 26.535156 L 41.277344 34.707031 C 41.277344 35.046875 41.285156 35.265625 41.300781 35.367188 L 39.804688 35.367188 L 39.804688 26.535156 Z M 45.914062 28.8125 L 45.914062 35.40625 C 45.726562 35.378906 45.238281 35.367188 44.457031 35.367188 L 44.269531 35.367188 L 44.269531 28.8125 L 43.101562 28.8125 C 42.753906 28.8125 42.550781 28.828125 42.484375 28.863281 C 42.421875 28.902344 42.375 28.933594 42.339844 28.960938 L 42.320312 28.953125 L 42.320312 27.433594 L 42.339844 27.417969 C 42.46875 27.460938 42.820312 27.484375 43.390625 27.484375 L 47.089844 27.484375 C 47.433594 27.484375 47.636719 27.464844 47.703125 27.429688 C 47.765625 27.394531 47.8125 27.363281 47.847656 27.335938 L 47.867188 27.339844 L 47.867188 28.859375 L 47.847656 28.878906 C 47.71875 28.832031 47.367188 28.8125 46.796875 28.8125 Z M 48.539062 32.304688 C 48.539062 31.867188 48.613281 31.453125 48.761719 31.054688 C 48.90625 30.660156 49.117188 30.3125 49.394531 30.011719 C 49.996094 29.375 50.777344 29.054688 51.734375 29.054688 C 52.6875 29.054688 53.449219 29.355469 54.011719 29.960938 C 54.550781 30.539062 54.820312 31.289062 54.820312 32.207031 C 54.820312 33.128906 54.542969 33.894531 53.988281 34.496094 C 53.402344 35.136719 52.625 35.457031 51.65625 35.457031 C 50.65625 35.457031 49.875 35.144531 49.3125 34.511719 C 48.796875 33.941406 48.539062 33.203125 48.539062 32.304688 Z M 49.96875 32.265625 C 49.96875 32.515625 50.011719 32.757812 50.097656 32.992188 C 50.179688 33.222656 50.296875 33.425781 50.449219 33.589844 C 50.777344 33.949219 51.203125 34.128906 51.734375 34.128906 C 52.226562 34.128906 52.613281 33.953125 52.894531 33.601562 C 53.171875 33.261719 53.308594 32.820312 53.308594 32.273438 C 53.308594 31.722656 53.167969 31.273438 52.882812 30.933594 C 52.582031 30.570312 52.167969 30.386719 51.640625 30.386719 C 51.105469 30.386719 50.6875 30.582031 50.382812 30.96875 C 50.109375 31.324219 49.96875 31.757812 49.96875 32.265625 Z M 59.738281 35.367188 L 59.738281 34.828125 C 59.234375 35.25 58.683594 35.457031 58.09375 35.457031 C 57.453125 35.457031 56.953125 35.242188 56.59375 34.8125 C 56.246094 34.394531 56.074219 33.816406 56.074219 33.085938 L 56.074219 30.734375 C 56.074219 29.941406 56.058594 29.488281 56.023438 29.371094 C 55.992188 29.253906 55.964844 29.179688 55.953125 29.148438 C 56.132812 29.164062 56.320312 29.171875 56.515625 29.171875 L 57.007812 29.171875 C 57.136719 29.171875 57.308594 29.167969 57.519531 29.152344 L 57.519531 32.585938 C 57.519531 33.402344 57.738281 33.875 58.179688 34.003906 C 58.3125 34.042969 58.457031 34.0625 58.617188 34.0625 C 59.082031 34.0625 59.453125 33.894531 59.738281 33.554688 L 59.738281 29.171875 L 61.199219 29.171875 L 61.199219 34.609375 C 61.199219 34.957031 61.214844 35.210938 61.246094 35.367188 Z M 64.472656 31.054688 L 64.472656 34.707031 C 64.472656 35.046875 64.480469 35.265625 64.496094 35.367188 L 63.027344 35.367188 L 63.027344 29.171875 L 64.472656 29.171875 L 64.472656 29.628906 C 64.808594 29.246094 65.15625 29.054688 65.523438 29.054688 C 65.894531 29.054688 66.183594 29.101562 66.394531 29.191406 L 66.289062 30.785156 L 66.265625 30.804688 C 66.128906 30.558594 65.84375 30.4375 65.410156 30.4375 C 65.246094 30.4375 65.078125 30.492188 64.90625 30.605469 C 64.734375 30.71875 64.589844 30.867188 64.472656 31.054688 Z M 70.777344 27.335938 C 71.511719 27.335938 72.140625 27.464844 72.660156 27.722656 L 72.660156 29.535156 L 72.648438 29.546875 C 72.425781 29.207031 71.960938 28.980469 71.253906 28.871094 C 71.046875 28.835938 70.78125 28.816406 70.464844 28.816406 C 70.144531 28.816406 69.832031 28.878906 69.527344 29 C 69.21875 29.117188 68.96875 29.289062 68.773438 29.511719 C 68.390625 29.941406 68.199219 30.554688 68.199219 31.355469 C 68.199219 32.285156 68.441406 32.976562 68.925781 33.429688 C 69.324219 33.808594 69.855469 34 70.515625 34 C 71.261719 34 71.871094 33.839844 72.332031 33.519531 C 72.503906 33.402344 72.644531 33.261719 72.765625 33.089844 L 72.78125 33.101562 L 72.78125 34.761719 C 72.179688 35.265625 71.371094 35.515625 70.351562 35.515625 C 69.152344 35.515625 68.210938 35.132812 67.53125 34.367188 C 66.878906 33.636719 66.554688 32.667969 66.554688 31.460938 C 66.554688 30.183594 66.910156 29.179688 67.628906 28.441406 C 68.351562 27.703125 69.398438 27.335938 70.777344 27.335938 Z M 73.671875 32.304688 C 73.671875 31.867188 73.746094 31.453125 73.894531 31.054688 C 74.039062 30.660156 74.25 30.3125 74.527344 30.011719 C 75.128906 29.375 75.910156 29.054688 76.867188 29.054688 C 77.824219 29.054688 78.582031 29.355469 79.144531 29.960938 C 79.683594 30.539062 79.953125 31.289062 79.953125 32.207031 C 79.953125 33.128906 79.675781 33.894531 79.121094 34.496094 C 78.535156 35.136719 77.757812 35.457031 76.792969 35.457031 C 75.792969 35.457031 75.011719 35.144531 74.445312 34.511719 C 73.929688 33.941406 73.671875 33.203125 73.671875 32.304688 Z M 75.105469 32.265625 C 75.105469 32.515625 75.148438 32.757812 75.230469 32.992188 C 75.3125 33.222656 75.429688 33.425781 75.582031 33.589844 C 75.910156 33.949219 76.335938 34.128906 76.867188 34.128906 C 77.359375 34.128906 77.746094 33.953125 78.03125 33.601562 C 78.304688 33.261719 78.441406 32.820312 78.441406 32.273438 C 78.441406 31.722656 78.300781 31.273438 78.019531 30.933594 C 77.71875 30.570312 77.300781 30.386719 76.773438 30.386719 C 76.238281 30.386719 75.820312 30.582031 75.515625 30.96875 C 75.242188 31.324219 75.105469 31.757812 75.105469 32.265625 Z M 75.105469 32.265625 "/>
</g>
<path style="fill-rule:nonzero;fill:rgb(20%,41.568627%,52.54902%);fill-opacity:1;stroke-width:1;stroke-linecap:butt;stroke-linejoin:miter;stroke:rgb(100%,100%,100%);stroke-opacity:1;stroke-miterlimit:4;" d="M 215.22377 99.705708 L 215.22377 36.617377 L 389.179418 36.617377 L 389.179418 210.584929 L 215.22377 210.584929 L 215.22377 147.496598 L 218.44633 147.496598 L 218.44633 207.363596 L 385.956859 207.363596 L 385.956859 39.83871 L 218.44633 39.83871 L 218.44633 99.705708 Z M 215.22377 99.705708 " transform="matrix(0.249704,0,0,0.251012,0.0584473,-0.000000000000001797)"/>
</g>
</svg>
